<?xml version="1.0" encoding="utf-8"?>
<!-- Generator: Adobe Illustrator 24.0.0, SVG Export Plug-In . SVG Version: 6.00 Build 0)  -->
<svg version="1.1" id="Layer_1" xmlns="http://www.w3.org/2000/svg" xmlns:xlink="http://www.w3.org/1999/xlink" x="0px" y="0px"
	 viewBox="0 0 1920 1000" style="enable-background:new 0 0 1920 1000;" xml:space="preserve">
<style type="text/css">
	.st0{fill:#004258;}
	.st1{opacity:5.000000e-02;fill:#FFFFFF;}
</style>
<rect class="st0" width="1920" height="1000"/>
<path class="st1" d="M-591,286l-8.4,1.2c-10.1,1.4-19.5-5.3-21.7-15.2l3.9,28h28.2L-591,286z"/>
<polygon class="st1" points="-333.1,300 -333.1,276 -506,300 "/>
<polygon class="st1" points="942.4,1186.6 140.5,1186.6 1183.9,-248.2 1985.8,-248.2 "/>
<polygon class="st1" points="1211.7,1186.6 409.8,1186.6 1453.3,-248.2 2255.2,-248.2 "/>
<polygon class="st1" points="2281.6,1186.6 1479.7,1186.6 2523.1,-248.2 3325,-248.2 "/>
<polygon class="st1" points="-599.7,1186.6 -1401.6,1186.6 -358.2,-248.2 443.7,-248.2 "/>
<polygon class="st1" points="-267.4,1186.6 -1069.3,1186.6 -25.9,-248.2 776,-248.2 "/>
<polygon class="st1" points="1138.1,1186.6 336.2,1186.6 1379.7,-248.2 2181.6,-248.2 "/>
<polygon class="st1" points="1407.5,1186.6 605.6,1186.6 1649.1,-248.2 2451,-248.2 "/>
<polygon class="st1" points="2477.3,1186.6 1675.4,1186.6 2718.9,-248.2 3520.8,-248.2 "/>
<polygon class="st1" points="-403.9,1186.6 -1205.8,1186.6 -162.4,-248.2 639.5,-248.2 "/>
<polygon class="st1" points="-71.6,1186.6 -873.5,1186.6 169.9,-248.2 971.8,-248.2 "/>
</svg>
