<?xml version="1.0" encoding="utf-8"?>
<!-- Generator: Adobe Illustrator 24.0.0, SVG Export Plug-In . SVG Version: 6.00 Build 0)  -->
<svg version="1.1" id="Capa_1" xmlns="http://www.w3.org/2000/svg" xmlns:xlink="http://www.w3.org/1999/xlink" x="0px" y="0px"
	 viewBox="0 0 339.7 149.5" style="enable-background:new 0 0 339.7 149.5;" xml:space="preserve">
<style type="text/css">
	.st0{fill:#002E3E;}
</style>
<title>background-gris</title>
<polygon class="st0" points="331.6,0 323.6,7.6 315.5,0 307.5,7.6 299.4,0 291.5,7.6 291,7.6 282.9,0 275,7.6 266.9,0 258.9,7.6 
	250.8,0 242.8,7.6 234.7,0 226.7,7.6 226.3,7.6 218.2,0 210.3,7.6 202.1,0 194.2,7.6 186.1,0 178.1,7.6 170,0 162,7.6 161.6,7.6 
	153.5,0 145.5,7.6 137.4,0 129.4,7.6 121.3,0 113.4,7.6 105.3,0 97.3,7.6 96.9,7.6 88.8,0 80.8,7.6 72.7,0 64.7,7.6 56.6,0 
	48.7,7.6 40.5,0 32.6,7.6 32.2,7.6 24,0 16.1,7.6 8,0 0,7.6 0,149.5 339.7,149.5 339.7,7.6 "/>
</svg>
